<svg class="thumbs thumbs-down" fill="currentColor" xmlns="http://www.w3.org/2000/svg" width="24" height="24" viewBox="0 0 24 24" aria-labelledby="thumbs-down-title"><path d="M19.406 14.442c1.426-.06 2.594-.858 2.594-2.506 0-1-.986-6.373-1.486-8.25C19.8.997 18.043 0 15.505 0c-2.283 0-4.079.617-5.336 1.158C7.584 2.271 5.504 3 2 3v9.928c3.086.401 6.43.956 8.4 7.744.483 1.66.972 3.328 2.833 3.328 3.448 0 3.005-5.531 2.196-8.814 1.107-.466 2.767-.692 3.977-.744zm-.207-1.992c-2.749.154-5.06 1.013-6.12 1.556.431 1.747.921 3.462.921 5.533 0 2.505-.781 3.666-1.679.574C10.328 13.254 7.264 11.749 4 11V5c2.521-.072 4.72-1.041 6.959-2.005 1.731-.745 4.849-1.495 6.416-.614 1.295.836 1.114 1.734.292 1.661l-.771-.032c-.815-.094-.92 1.068-.109 1.141 0 0 1.321.062 1.745.115.976.123 1.028 1.607-.04 1.551-.457-.024-1.143-.041-1.143-.041-.797-.031-.875 1.078-.141 1.172 0 0 .714.005 1.761.099s1.078 1.609-.004 1.563c-.868-.037-1.069-.027-1.069-.027-.75.005-.874 1.028-.141 1.115l1.394.167c1.075.13 1.105 1.526.05 1.585z"></path></svg>
